<svg xmlns="http://www.w3.org/2000/svg" width="1920" height="596" fill="none"><g opacity=".7"><path fill="#E2DBCD" d="m444 92.99-10-40 36.4-9.6 12 47.2 130.4-7.2 21.2-44.8 34 16-12.4 26.4 43.2-2.4 2.4 37.2-63.2 3.6-20 43.2-34.8-16 11.6-24.8-102.8 6 4.8 18-36.4 9.6-6.8-25.6-62.8 3.6-2-37.6 55.2-2.8Zm47.2 236.4 44 14.4-1.2-55.2-4.4.4 1.6 1.6-122 94.4-22.8-29.6 79.6-61.6-20 1.6-3.2-37.6 90.4-7.2-.4-23.2 37.6-.8.4 21.2 72-5.6-117.6-50.4-124.4 91.2-22-30.4 168.4-123.2 22 30.4-8 6 139.6 59.6-14.4 35.2-41.2-17.6 3.2 36.4-76.8 6 1.6 84.4-24.4 18-69.6-22.4 12-36Zm111.6-38 81.6 51.2-20 31.2-81.6-50.4 20-32Z"/><path fill="#D3D3B4" d="m444 92.99-10-40 36.4-9.6 12 47.2 130.4-7.2 21.2-44.8 34 16-12.4 26.4 43.2-2.4 2.4 37.2-63.2 3.6-20 43.2-34.8-16 11.6-24.8-102.8 6 4.8 18-36.4 9.6-6.8-25.6-62.8 3.6-2-37.6 55.2-2.8Zm47.2 236.4 44 14.4-1.2-55.2-4.4.4 1.6 1.6-122 94.4-22.8-29.6 79.6-61.6-20 1.6-3.2-37.6 90.4-7.2-.4-23.2 37.6-.8.4 21.2 72-5.6-117.6-50.4-124.4 91.2-22-30.4 168.4-123.2 22 30.4-8 6 139.6 59.6-14.4 35.2-41.2-17.6 3.2 36.4-76.8 6 1.6 84.4-24.4 18-69.6-22.4 12-36Zm111.6-38 81.6 51.2-20 31.2-81.6-50.4 20-32Z"/></g><g opacity=".7"><path fill="#E2DBCD" d="m54 92.99-10-40 36.4-9.6 12 47.2 130.4-7.2 21.2-44.8 34 16-12.4 26.4 43.2-2.4 2.4 37.2-63.2 3.6-20 43.2-34.8-16 11.6-24.8-102.8 6 4.8 18-36.4 9.6-6.8-25.6-62.8 3.6-2-37.6 55.2-2.8Zm47.2 236.4 44 14.4-1.2-55.2-4.4.4 1.6 1.6-122 94.4-22.8-29.6 79.6-61.6-20 1.6-3.2-37.6 90.4-7.2-.4-23.2 37.6-.8.4 21.2 72-5.6-117.6-50.4-124.4 91.2-22-30.4 168.4-123.2 22 30.4-8 6 139.6 59.6-14.4 35.2-41.2-17.6 3.2 36.4-76.8 6 1.6 84.4-24.4 18-69.6-22.4 12-36Zm111.6-38 81.6 51.2-20 31.2-81.6-50.4 20-32Z"/><path fill="#D3D3B4" d="m54 92.99-10-40 36.4-9.6 12 47.2 130.4-7.2 21.2-44.8 34 16-12.4 26.4 43.2-2.4 2.4 37.2-63.2 3.6-20 43.2-34.8-16 11.6-24.8-102.8 6 4.8 18-36.4 9.6-6.8-25.6-62.8 3.6-2-37.6 55.2-2.8Zm47.2 236.4 44 14.4-1.2-55.2-4.4.4 1.6 1.6-122 94.4-22.8-29.6 79.6-61.6-20 1.6-3.2-37.6 90.4-7.2-.4-23.2 37.6-.8.4 21.2 72-5.6-117.6-50.4-124.4 91.2-22-30.4 168.4-123.2 22 30.4-8 6 139.6 59.6-14.4 35.2-41.2-17.6 3.2 36.4-76.8 6 1.6 84.4-24.4 18-69.6-22.4 12-36Zm111.6-38 81.6 51.2-20 31.2-81.6-50.4 20-32Z"/></g><g opacity=".7"><path fill="#E2DBCD" d="m846 88.99-10-40 36.4-9.6 12 47.2 130.4-7.2 21.2-44.8 34 16-12.4 26.4 43.2-2.4 2.4 37.2-63.2 3.6-20 43.2-34.8-16 11.6-24.8-102.8 6 4.8 18-36.4 9.6-6.8-25.6-62.8 3.6-2-37.6 55.2-2.8Zm47.2 236.4 44 14.4-1.2-55.2-4.4.4 1.6 1.6-122 94.4-22.8-29.6 79.6-61.6-20 1.6-3.2-37.6 90.4-7.2-.4-23.2 37.6-.8.4 21.2 72-5.6-117.6-50.4-124.4 91.2-22-30.4 168.4-123.2 22 30.4-8 6 139.6 59.6-14.4 35.2-41.2-17.6 3.2 36.4-76.8 6 1.6 84.4-24.4 18-69.6-22.4 12-36Zm111.6-38 81.6 51.2-20 31.2-81.6-50.4 20-32Z"/><path fill="#D3D3B4" d="m846 88.99-10-40 36.4-9.6 12 47.2 130.4-7.2 21.2-44.8 34 16-12.4 26.4 43.2-2.4 2.4 37.2-63.2 3.6-20 43.2-34.8-16 11.6-24.8-102.8 6 4.8 18-36.4 9.6-6.8-25.6-62.8 3.6-2-37.6 55.2-2.8Zm47.2 236.4 44 14.4-1.2-55.2-4.4.4 1.6 1.6-122 94.4-22.8-29.6 79.6-61.6-20 1.6-3.2-37.6 90.4-7.2-.4-23.2 37.6-.8.4 21.2 72-5.6-117.6-50.4-124.4 91.2-22-30.4 168.4-123.2 22 30.4-8 6 139.6 59.6-14.4 35.2-41.2-17.6 3.2 36.4-76.8 6 1.6 84.4-24.4 18-69.6-22.4 12-36Zm111.6-38 81.6 51.2-20 31.2-81.6-50.4 20-32Z"/></g><g opacity=".7"><path fill="#E2DBCD" d="m1255 91.99-10-40 36.4-9.6 12 47.2 130.4-7.2 21.2-44.8 34 16-12.4 26.4 43.2-2.4 2.4 37.2-63.2 3.6-20 43.2-34.8-16 11.6-24.8-102.8 6 4.8 18-36.4 9.6-6.8-25.6-62.8 3.6-2-37.6 55.2-2.8Zm47.2 236.4 44 14.4-1.2-55.2-4.4.4 1.6 1.6-122 94.4-22.8-29.6 79.6-61.6-20 1.6-3.2-37.6 90.4-7.2-.4-23.2 37.6-.8.4 21.2 72-5.6-117.6-50.4-124.4 91.2-22-30.4 168.4-123.2 22 30.4-8 6 139.6 59.6-14.4 35.2-41.2-17.6 3.2 36.4-76.8 6 1.6 84.4-24.4 18-69.6-22.4 12-36Zm111.6-38 81.6 51.2-20 31.2-81.6-50.4 20-32Z"/><path fill="#D3D3B4" d="m1255 91.99-10-40 36.4-9.6 12 47.2 130.4-7.2 21.2-44.8 34 16-12.4 26.4 43.2-2.4 2.4 37.2-63.2 3.6-20 43.2-34.8-16 11.6-24.8-102.8 6 4.8 18-36.4 9.6-6.8-25.6-62.8 3.6-2-37.6 55.2-2.8Zm47.2 236.4 44 14.4-1.2-55.2-4.4.4 1.6 1.6-122 94.4-22.8-29.6 79.6-61.6-20 1.6-3.2-37.6 90.4-7.2-.4-23.2 37.6-.8.4 21.2 72-5.6-117.6-50.4-124.4 91.2-22-30.4 168.4-123.2 22 30.4-8 6 139.6 59.6-14.4 35.2-41.2-17.6 3.2 36.4-76.8 6 1.6 84.4-24.4 18-69.6-22.4 12-36Zm111.6-38 81.6 51.2-20 31.2-81.6-50.4 20-32Z"/></g><g opacity=".7"><path fill="#E2DBCD" d="m1656 91.99-10-40 36.4-9.6 12 47.2 130.4-7.2 21.2-44.8 34 16-12.4 26.4 43.2-2.4 2.4 37.2-63.2 3.6-20 43.2-34.8-16 11.6-24.8-102.8 6 4.8 18-36.4 9.6-6.8-25.6-62.8 3.6-2-37.6 55.2-2.8Zm47.2 236.4 44 14.4-1.2-55.2-4.4.4 1.6 1.6-122 94.4-22.8-29.6 79.6-61.6-20 1.6-3.2-37.6 90.4-7.2-.4-23.2 37.6-.8.4 21.2 72-5.6-117.6-50.4-124.4 91.2-22-30.4 168.4-123.2 22 30.4-8 6 139.6 59.6-14.4 35.2-41.2-17.6 3.2 36.4-76.8 6 1.6 84.4-24.4 18-69.6-22.4 12-36Zm111.6-38 81.6 51.2-20 31.2-81.6-50.4 20-32Z"/><path fill="#D3D3B4" d="m1656 91.99-10-40 36.4-9.6 12 47.2 130.4-7.2 21.2-44.8 34 16-12.4 26.4 43.2-2.4 2.4 37.2-63.2 3.6-20 43.2-34.8-16 11.6-24.8-102.8 6 4.8 18-36.4 9.6-6.8-25.6-62.8 3.6-2-37.6 55.2-2.8Zm47.2 236.4 44 14.4-1.2-55.2-4.4.4 1.6 1.6-122 94.4-22.8-29.6 79.6-61.6-20 1.6-3.2-37.6 90.4-7.2-.4-23.2 37.6-.8.4 21.2 72-5.6-117.6-50.4-124.4 91.2-22-30.4 168.4-123.2 22 30.4-8 6 139.6 59.6-14.4 35.2-41.2-17.6 3.2 36.4-76.8 6 1.6 84.4-24.4 18-69.6-22.4 12-36Zm111.6-38 81.6 51.2-20 31.2-81.6-50.4 20-32Z"/></g></svg>