<svg width="322" height="349" viewBox="0 0 322 349" fill="none" xmlns="http://www.w3.org/2000/svg">
<path d="M65.1191 54.3689L55.1315 14.3918L91.4863 4.79726L103.471 51.9702L233.71 44.7744L254.883 0L288.841 15.9908L276.457 42.3757L319.603 39.9771L322 77.1558L258.878 80.7537L238.903 123.929L204.146 107.938L215.732 83.1524L113.06 89.1489L117.854 107.139L81.4988 116.733L74.7072 91.1478L11.9851 94.7457L9.98759 57.1672L65.1191 54.3689ZM112.261 290.633L156.206 305.025L155.007 249.857L150.613 250.257L152.211 251.856L30.3623 346.202L7.59057 316.619L87.0918 255.054L67.1166 256.653L63.9206 219.074L154.208 211.879L153.809 188.692L191.362 187.892L191.762 209.08L263.672 203.483L146.218 153.112L21.9727 244.26L0 213.877L168.191 90.748L190.164 121.131L182.174 127.127L321.6 186.693L307.218 221.873L266.069 204.283L269.265 240.662L192.561 246.659L194.159 331.01L169.789 349L100.275 326.613L112.261 290.633ZM223.722 252.655L305.221 303.826L285.246 335.008L203.747 284.637L223.722 252.655Z" fill="#AAAAAA"/>
</svg>
